<svg version="1.1" id="Layer_1" xmlns="http://www.w3.org/2000/svg" xmlns:xlink="http://www.w3.org/1999/xlink" x="0px" y="0px"
	 width="100%" viewBox="0 0 1080 1080" enable-background="new 0 0 1080 1080" xml:space="preserve">
<path fill="#000000" opacity="1.000000" stroke="none" 
	d="
M716.000000,1081.000000 
	C477.360809,1081.000000 239.221634,1081.000000 1.041225,1081.000000 
	C1.041225,721.069031 1.041225,361.138062 1.041225,1.103538 
	C360.889404,1.103538 720.778870,1.103538 1080.834229,1.103538 
	C1080.834229,360.999939 1080.834229,720.999939 1080.834229,1081.000000 
	C959.470947,1081.000000 837.985474,1081.000000 716.000000,1081.000000 
M345.090668,724.793274 
	C346.724152,727.517700 348.450134,730.191406 349.974945,732.975403 
	C356.122467,744.199524 362.185150,755.470093 368.321991,766.700073 
	C375.566376,779.956787 382.878876,793.176208 390.117157,806.436279 
	C396.618561,818.346497 404.002258,829.618286 413.190979,839.677002 
	C422.206970,849.546692 432.542908,857.716736 445.053040,862.406372 
	C458.229034,867.345581 471.472137,872.431335 486.010864,872.048340 
	C497.873077,871.735779 509.505951,871.502319 521.264282,868.293396 
	C538.157471,863.683105 553.020447,856.106079 565.321838,843.922974 
	C572.131958,837.178345 578.320007,829.659912 583.897400,821.853638 
	C590.732300,812.287415 596.770203,802.137512 602.893005,792.081726 
	C606.824951,785.624023 610.298279,778.886475 613.959656,772.264648 
	C617.480713,765.896484 620.786316,759.400085 624.528687,753.165283 
	C631.852478,740.963684 639.563416,728.993530 646.824585,716.755737 
	C651.534912,708.817078 655.581726,700.487183 660.197266,692.489258 
	C666.318420,681.882446 672.862671,671.518738 678.927368,660.880737 
	C683.912415,652.136780 688.265747,643.032104 693.266602,634.297729 
	C697.463623,626.967224 702.293152,620.001770 706.648865,612.758118 
	C709.652161,607.763611 712.188354,602.488342 715.187073,597.490845 
	C717.722534,593.265320 720.815369,589.372620 723.322998,585.132446 
	C729.345215,574.949280 735.194641,564.663513 741.064636,554.390991 
	C747.108582,543.813904 753.097168,533.205200 759.104553,522.607300 
	C763.502502,514.848755 767.769165,507.012665 772.312500,499.340363 
	C780.015076,486.333130 787.990601,473.487122 795.658020,460.459564 
	C801.000732,451.381744 805.884521,442.034027 811.216736,432.949768 
	C818.701111,420.198975 826.479553,407.621063 834.001892,394.892151 
	C839.200439,386.095520 844.050720,377.092255 849.287048,368.318848 
	C856.457031,356.305695 864.122620,344.581146 871.056396,332.436371 
	C877.078857,321.887756 881.758484,310.540436 888.164551,300.251556 
	C895.270264,288.838898 895.473877,276.351013 893.591980,264.404999 
	C890.568542,245.212509 879.515076,230.486023 861.663574,222.055801 
	C843.636902,213.542847 824.818604,209.154068 804.713135,214.010132 
	C791.075012,217.304138 778.011902,221.937088 765.720032,228.737762 
	C749.879517,237.501740 739.970703,251.982330 730.103210,266.300446 
	C724.537292,274.376709 720.393250,283.424744 715.477295,291.959320 
	C710.389954,300.791290 705.067078,309.487579 699.985168,318.322601 
	C692.807007,330.802002 685.822266,343.392731 678.632812,355.865509 
	C670.150452,370.581116 661.458069,385.175842 653.008301,399.909882 
	C646.883789,410.589478 641.066895,421.445038 635.001282,432.158966 
	C628.729858,443.236328 622.332703,454.242615 615.974060,465.270477 
	C609.338074,476.779388 602.578125,488.218262 596.060181,499.793518 
	C586.425781,516.903320 576.942810,534.098572 567.429260,551.276184 
	C565.157715,555.377563 563.155701,559.632812 560.783386,563.672668 
	C558.340820,567.832153 555.399170,571.703064 553.029968,575.900085 
	C549.034119,582.978455 545.482788,590.308960 541.449280,597.364685 
	C533.078369,612.007446 524.546875,626.558899 516.018799,641.111206 
	C509.097412,652.921997 502.101501,664.689392 495.073090,676.436768 
	C494.625977,677.184082 493.612091,677.592285 492.473877,678.450928 
	C486.886688,668.553650 481.447235,659.036072 476.122162,649.454956 
	C469.694031,637.889221 463.428894,626.232605 456.969116,614.684753 
	C451.687012,605.242310 446.118317,595.959534 440.874207,586.496582 
	C437.073975,579.639099 433.769226,572.506226 429.942474,565.664551 
	C419.533936,547.055664 408.893127,528.576660 398.488220,509.965759 
	C392.507629,499.268494 386.896149,488.365265 380.952698,477.646667 
	C375.697083,468.168549 370.177185,458.837372 364.839874,449.404022 
	C361.147644,442.878204 357.992188,436.005920 353.847137,429.788239 
	C345.689697,417.551758 337.551270,405.019165 324.708832,397.093781 
	C309.642334,387.795898 293.394257,381.705933 275.280945,381.990509 
	C266.096497,382.134857 256.831512,381.374451 247.742767,382.339783 
	C235.779861,383.610382 224.811813,388.656860 214.831070,395.168091 
	C200.294327,404.651459 189.738663,416.928040 191.030273,435.829224 
	C191.338058,440.333191 191.021973,445.368988 192.936478,449.185059 
	C199.488663,462.245331 206.958664,474.842712 213.979080,487.671112 
	C222.243057,502.771851 230.419434,517.920654 238.602798,533.065369 
	C244.104980,543.248108 249.426178,553.530823 255.061310,563.638916 
	C260.796051,573.925720 266.982300,583.961914 272.661530,594.278137 
	C277.661255,603.360046 282.184937,612.702759 287.010742,621.881958 
	C290.686279,628.873047 294.394409,635.851685 298.289703,642.721558 
	C303.080017,651.169861 308.133423,659.468628 312.971924,667.890198 
	C316.691467,674.364197 320.286499,680.910583 323.880005,687.455994 
	C329.598114,697.871460 335.214630,708.343140 341.014862,718.712402 
	C341.947266,720.379395 343.609955,721.637817 345.028381,723.580566 
	C345.091125,723.736511 345.153870,723.892395 345.090668,724.793274 
z"/>
<path fill="#8EF418" opacity="1.000000" stroke="none" 
	d="
M345.216614,724.048279 
	C345.153870,723.892395 345.091125,723.736511 344.999298,722.927002 
	C343.478760,718.272522 342.466766,714.005188 340.416687,710.314514 
	C328.745361,689.303528 316.776428,668.458252 305.005859,647.502014 
	C293.708221,627.387878 282.474091,607.237610 271.311920,587.048035 
	C258.180267,563.296082 245.153900,539.486023 232.086151,515.698792 
	C223.164886,499.459473 214.136978,483.277191 205.384827,466.947144 
	C201.396866,459.506287 196.978516,452.076904 194.484894,444.101562 
	C189.797760,429.110596 196.271210,413.364410 210.233826,401.938934 
	C224.339722,390.396149 240.914169,385.006775 259.079926,385.035217 
	C271.084839,385.054016 282.897278,385.246185 294.976288,387.942139 
	C312.553314,391.865112 326.708862,400.156494 338.089996,413.421204 
	C343.034637,419.184204 348.589630,424.627045 350.826172,432.660248 
	C352.110992,437.275177 356.671722,440.880829 359.139435,445.287109 
	C362.601349,451.468567 365.213867,458.126434 368.687347,464.300507 
	C373.394440,472.667297 378.809021,480.636932 383.492065,489.016174 
	C390.049225,500.748779 396.090271,512.768921 402.580231,524.540283 
	C408.272400,534.864502 414.392273,544.952515 420.120789,555.257324 
	C429.331299,571.825867 438.260742,588.550964 447.516541,605.093811 
	C460.671783,628.606140 474.038605,652.000061 487.263611,675.473450 
	C491.140839,682.355225 495.090332,682.523865 499.256592,675.751160 
	C502.640839,670.249756 505.948242,664.700012 509.220398,659.130981 
	C522.161865,637.105408 534.867493,614.946045 547.229309,592.587585 
	C553.922485,580.481934 560.938965,568.555054 567.797974,556.540894 
	C579.557678,535.942688 591.333435,515.353455 603.055176,494.733673 
	C613.490173,476.377502 623.831177,457.967926 634.267090,439.612305 
	C649.975342,411.982941 665.621643,384.317444 681.509888,356.791748 
	C689.732300,342.546844 698.586060,328.666534 706.817078,314.426422 
	C710.330994,308.347015 712.449219,301.439270 716.131897,295.483154 
	C725.292603,280.667175 734.540466,265.865631 744.586182,251.646744 
	C756.067261,235.396301 773.166321,227.045151 791.487122,220.762192 
	C811.512085,213.894791 831.444336,212.624451 851.381470,220.947174 
	C866.179504,227.124573 879.637329,234.908585 885.739075,250.967133 
	C887.700073,256.128082 890.202515,261.424469 890.538818,266.779358 
	C891.010010,274.281219 891.485596,282.628204 888.764587,289.313293 
	C882.649109,304.338104 875.077637,318.847778 867.149292,333.036591 
	C858.233459,348.992432 848.132568,364.281219 838.806458,380.013947 
	C829.063538,396.449951 819.654602,413.083618 810.047852,429.600739 
	C805.963379,436.623291 801.675293,443.527588 797.603577,450.557343 
	C783.082825,475.626831 768.642761,500.743134 754.106140,525.803406 
	C750.852783,531.411987 747.202881,536.790771 743.955872,542.402893 
	C732.475037,562.246399 721.186523,582.201599 709.630554,602.000977 
	C703.104309,613.182800 696.004089,624.030762 689.524353,635.238403 
	C684.405518,644.092346 680.059998,653.392273 674.971436,662.264954 
	C668.527466,673.500854 661.570129,684.441162 655.036194,695.626953 
	C648.829773,706.252136 643.029053,717.114807 636.794617,727.723022 
	C621.087524,754.449707 605.356934,781.164062 589.399292,807.741394 
	C579.333252,824.506409 567.240601,839.689392 551.329224,851.322205 
	C541.425415,858.562988 530.188904,863.445190 518.157471,865.791687 
	C501.776794,868.986328 485.407562,869.608704 468.720612,866.355530 
	C440.686096,860.890198 419.069733,846.446167 403.573303,822.750427 
	C397.864441,814.020996 392.890991,804.806396 387.678772,795.757385 
	C381.556610,785.128784 375.474426,774.476074 369.494385,763.767029 
	C362.612579,751.443176 355.912292,739.017639 348.974060,726.726074 
	C348.289307,725.513062 346.495605,724.925903 345.216614,724.048279 
z"/>
<path fill="#AAF828" opacity="1.000000" stroke="none" 
	d="
M345.153625,724.420776 
	C346.495605,724.925903 348.289307,725.513062 348.974060,726.726074 
	C355.912292,739.017639 362.612579,751.443176 369.494385,763.767029 
	C375.474426,774.476074 381.556610,785.128784 387.678772,795.757385 
	C392.890991,804.806396 397.864441,814.020996 403.573303,822.750427 
	C419.069733,846.446167 440.686096,860.890198 468.720612,866.355530 
	C485.407562,869.608704 501.776794,868.986328 518.157471,865.791687 
	C530.188904,863.445190 541.425415,858.562988 551.329224,851.322205 
	C567.240601,839.689392 579.333252,824.506409 589.399292,807.741394 
	C605.356934,781.164062 621.087524,754.449707 636.794617,727.723022 
	C643.029053,717.114807 648.829773,706.252136 655.036194,695.626953 
	C661.570129,684.441162 668.527466,673.500854 674.971436,662.264954 
	C680.059998,653.392273 684.405518,644.092346 689.524353,635.238403 
	C696.004089,624.030762 703.104309,613.182800 709.630554,602.000977 
	C721.186523,582.201599 732.475037,562.246399 743.955872,542.402893 
	C747.202881,536.790771 750.852783,531.411987 754.106140,525.803406 
	C768.642761,500.743134 783.082825,475.626831 797.603577,450.557343 
	C801.675293,443.527588 805.963379,436.623291 810.047852,429.600739 
	C819.654602,413.083618 829.063538,396.449951 838.806458,380.013947 
	C848.132568,364.281219 858.233459,348.992432 867.149292,333.036591 
	C875.077637,318.847778 882.649109,304.338104 888.764587,289.313293 
	C891.485596,282.628204 891.010010,274.281219 890.538818,266.779358 
	C890.202515,261.424469 887.700073,256.128082 885.739075,250.967133 
	C879.637329,234.908585 866.179504,227.124573 851.381470,220.947174 
	C831.444336,212.624451 811.512085,213.894791 791.487122,220.762192 
	C773.166321,227.045151 756.067261,235.396301 744.586182,251.646744 
	C734.540466,265.865631 725.292603,280.667175 716.131897,295.483154 
	C712.449219,301.439270 710.330994,308.347015 706.817078,314.426422 
	C698.586060,328.666534 689.732300,342.546844 681.509888,356.791748 
	C665.621643,384.317444 649.975342,411.982941 634.267090,439.612305 
	C623.831177,457.967926 613.490173,476.377502 603.055176,494.733673 
	C591.333435,515.353455 579.557678,535.942688 567.797974,556.540894 
	C560.938965,568.555054 553.922485,580.481934 547.229309,592.587585 
	C534.867493,614.946045 522.161865,637.105408 509.220398,659.130981 
	C505.948242,664.700012 502.640839,670.249756 499.256592,675.751160 
	C495.090332,682.523865 491.140839,682.355225 487.263611,675.473450 
	C474.038605,652.000061 460.671783,628.606140 447.516541,605.093811 
	C438.260742,588.550964 429.331299,571.825867 420.120789,555.257324 
	C414.392273,544.952515 408.272400,534.864502 402.580231,524.540283 
	C396.090271,512.768921 390.049225,500.748779 383.492065,489.016174 
	C378.809021,480.636932 373.394440,472.667297 368.687347,464.300507 
	C365.213867,458.126434 362.601349,451.468567 359.139435,445.287109 
	C356.671722,440.880829 352.110992,437.275177 350.826172,432.660248 
	C348.589630,424.627045 343.034637,419.184204 338.089996,413.421204 
	C326.708862,400.156494 312.553314,391.865112 294.976288,387.942139 
	C282.897278,385.246185 271.084839,385.054016 259.079926,385.035217 
	C240.914169,385.006775 224.339722,390.396149 210.233826,401.938934 
	C196.271210,413.364410 189.797760,429.110596 194.484894,444.101562 
	C196.978516,452.076904 201.396866,459.506287 205.384827,466.947144 
	C214.136978,483.277191 223.164886,499.459473 232.086151,515.698792 
	C245.153900,539.486023 258.180267,563.296082 271.311920,587.048035 
	C282.474091,607.237610 293.708221,627.387878 305.005859,647.502014 
	C316.776428,668.458252 328.745361,689.303528 340.416687,710.314514 
	C342.466766,714.005188 343.478760,718.272522 344.952637,722.679321 
	C343.609955,721.637817 341.947266,720.379395 341.014862,718.712402 
	C335.214630,708.343140 329.598114,697.871460 323.880005,687.455994 
	C320.286499,680.910583 316.691467,674.364197 312.971924,667.890198 
	C308.133423,659.468628 303.080017,651.169861 298.289703,642.721558 
	C294.394409,635.851685 290.686279,628.873047 287.010742,621.881958 
	C282.184937,612.702759 277.661255,603.360046 272.661530,594.278137 
	C266.982300,583.961914 260.796051,573.925720 255.061310,563.638916 
	C249.426178,553.530823 244.104980,543.248108 238.602798,533.065369 
	C230.419434,517.920654 222.243057,502.771851 213.979080,487.671112 
	C206.958664,474.842712 199.488663,462.245331 192.936478,449.185059 
	C191.021973,445.368988 191.338058,440.333191 191.030273,435.829224 
	C189.738663,416.928040 200.294327,404.651459 214.831070,395.168091 
	C224.811813,388.656860 235.779861,383.610382 247.742767,382.339783 
	C256.831512,381.374451 266.096497,382.134857 275.280945,381.990509 
	C293.394257,381.705933 309.642334,387.795898 324.708832,397.093781 
	C337.551270,405.019165 345.689697,417.551758 353.847137,429.788239 
	C357.992188,436.005920 361.147644,442.878204 364.839874,449.404022 
	C370.177185,458.837372 375.697083,468.168549 380.952698,477.646667 
	C386.896149,488.365265 392.507629,499.268494 398.488220,509.965759 
	C408.893127,528.576660 419.533936,547.055664 429.942474,565.664551 
	C433.769226,572.506226 437.073975,579.639099 440.874207,586.496582 
	C446.118317,595.959534 451.687012,605.242310 456.969116,614.684753 
	C463.428894,626.232605 469.694031,637.889221 476.122162,649.454956 
	C481.447235,659.036072 486.886688,668.553650 492.473877,678.450928 
	C493.612091,677.592285 494.625977,677.184082 495.073090,676.436768 
	C502.101501,664.689392 509.097412,652.921997 516.018799,641.111206 
	C524.546875,626.558899 533.078369,612.007446 541.449280,597.364685 
	C545.482788,590.308960 549.034119,582.978455 553.029968,575.900085 
	C555.399170,571.703064 558.340820,567.832153 560.783386,563.672668 
	C563.155701,559.632812 565.157715,555.377563 567.429260,551.276184 
	C576.942810,534.098572 586.425781,516.903320 596.060181,499.793518 
	C602.578125,488.218262 609.338074,476.779388 615.974060,465.270477 
	C622.332703,454.242615 628.729858,443.236328 635.001282,432.158966 
	C641.066895,421.445038 646.883789,410.589478 653.008301,399.909882 
	C661.458069,385.175842 670.150452,370.581116 678.632812,355.865509 
	C685.822266,343.392731 692.807007,330.802002 699.985168,318.322601 
	C705.067078,309.487579 710.389954,300.791290 715.477295,291.959320 
	C720.393250,283.424744 724.537292,274.376709 730.103210,266.300446 
	C739.970703,251.982330 749.879517,237.501740 765.720032,228.737762 
	C778.011902,221.937088 791.075012,217.304138 804.713135,214.010132 
	C824.818604,209.154068 843.636902,213.542847 861.663574,222.055801 
	C879.515076,230.486023 890.568542,245.212509 893.591980,264.404999 
	C895.473877,276.351013 895.270264,288.838898 888.164551,300.251556 
	C881.758484,310.540436 877.078857,321.887756 871.056396,332.436371 
	C864.122620,344.581146 856.457031,356.305695 849.287048,368.318848 
	C844.050720,377.092255 839.200439,386.095520 834.001892,394.892151 
	C826.479553,407.621063 818.701111,420.198975 811.216736,432.949768 
	C805.884521,442.034027 801.000732,451.381744 795.658020,460.459564 
	C787.990601,473.487122 780.015076,486.333130 772.312500,499.340363 
	C767.769165,507.012665 763.502502,514.848755 759.104553,522.607300 
	C753.097168,533.205200 747.108582,543.813904 741.064636,554.390991 
	C735.194641,564.663513 729.345215,574.949280 723.322998,585.132446 
	C720.815369,589.372620 717.722534,593.265320 715.187073,597.490845 
	C712.188354,602.488342 709.652161,607.763611 706.648865,612.758118 
	C702.293152,620.001770 697.463623,626.967224 693.266602,634.297729 
	C688.265747,643.032104 683.912415,652.136780 678.927368,660.880737 
	C672.862671,671.518738 666.318420,681.882446 660.197266,692.489258 
	C655.581726,700.487183 651.534912,708.817078 646.824585,716.755737 
	C639.563416,728.993530 631.852478,740.963684 624.528687,753.165283 
	C620.786316,759.400085 617.480713,765.896484 613.959656,772.264648 
	C610.298279,778.886475 606.824951,785.624023 602.893005,792.081726 
	C596.770203,802.137512 590.732300,812.287415 583.897400,821.853638 
	C578.320007,829.659912 572.131958,837.178345 565.321838,843.922974 
	C553.020447,856.106079 538.157471,863.683105 521.264282,868.293396 
	C509.505951,871.502319 497.873077,871.735779 486.010864,872.048340 
	C471.472137,872.431335 458.229034,867.345581 445.053040,862.406372 
	C432.542908,857.716736 422.206970,849.546692 413.190979,839.677002 
	C404.002258,829.618286 396.618561,818.346497 390.117157,806.436279 
	C382.878876,793.176208 375.566376,779.956787 368.321991,766.700073 
	C362.185150,755.470093 356.122467,744.199524 349.974945,732.975403 
	C348.450134,730.191406 346.724152,727.517700 345.153625,724.420776 
z"/>
</svg>